<?xml version="1.0" encoding="UTF-8" standalone="no"?>
<!DOCTYPE svg PUBLIC "-//W3C//DTD SVG 1.1//EN"
 "http://www.w3.org/Graphics/SVG/1.1/DTD/svg11.dtd">
<!-- Generated by graphviz version 2.47.2 (20210527.0053)
 -->
<!-- Title: dependency&#45;cruiser output Pages: 1 -->
<svg width="315pt" height="334pt"
 viewBox="0.00 0.00 315.00 334.00" xmlns="http://www.w3.org/2000/svg" xmlns:xlink="http://www.w3.org/1999/xlink">
<g id="graph0" class="graph" transform="scale(1 1) rotate(0) translate(4 330)">
<title>dependency&#45;cruiser output</title>
<polygon fill="white" stroke="transparent" points="-4,4 -4,-330 311,-330 311,4 -4,4"/>
<g id="clust1" class="cluster">
<title>cluster_src</title>
<path fill="#ffffff" stroke="black" stroke-width="2" d="M20,-86C20,-86 287,-86 287,-86 293,-86 299,-92 299,-98 299,-98 299,-306 299,-306 299,-312 293,-318 287,-318 287,-318 20,-318 20,-318 14,-318 8,-312 8,-306 8,-306 8,-98 8,-98 8,-92 14,-86 20,-86"/>
<text text-anchor="middle" x="153.5" y="-306.8" font-family="Helvetica,sans-Serif" font-weight="bold" font-size="9.00">src</text>
</g>
<g id="clust2" class="cluster">
<title>cluster_src/CLI</title>
<path fill="#ffffff" stroke="black" stroke-width="2" d="M28.5,-210C28.5,-210 279,-210 279,-210 285,-210 291,-216 291,-222 291,-222 291,-280 291,-280 291,-286 285,-292 279,-292 279,-292 28.5,-292 28.5,-292 22.5,-292 16.5,-286 16.5,-280 16.5,-280 16.5,-222 16.5,-222 16.5,-216 22.5,-210 28.5,-210"/>
<text text-anchor="middle" x="153.75" y="-280.8" font-family="Helvetica,sans-Serif" font-weight="bold" font-size="9.00">CLI</text>
</g>
<!-- ./constantsSiteDetails -->
<g id="node1" class="node">
<title>./constantsSiteDetails</title>
<path fill="#ffffcc" stroke="red" d="M267.5,-78C267.5,-78 177.5,-78 177.5,-78 174.5,-78 171.5,-75 171.5,-72 171.5,-72 171.5,-66 171.5,-66 171.5,-63 174.5,-60 177.5,-60 177.5,-60 267.5,-60 267.5,-60 270.5,-60 273.5,-63 273.5,-66 273.5,-66 273.5,-72 273.5,-72 273.5,-75 270.5,-78 267.5,-78"/>
<text text-anchor="middle" x="222.5" y="-66.8" font-family="Helvetica,sans-Serif" font-size="9.00" fill="red">constantsSiteDetails</text>
</g>
<!-- constantsSiteDetails.js -->
<g id="node2" class="node">
<title>constantsSiteDetails.js</title>
<g id="a_node2"><a xlink:href="constantsSiteDetails.js" xlink:title="constantsSiteDetails.js">
<path fill="#ffffcc" stroke="black" d="M272.5,-18C272.5,-18 172.5,-18 172.5,-18 169.5,-18 166.5,-15 166.5,-12 166.5,-12 166.5,-6 166.5,-6 166.5,-3 169.5,0 172.5,0 172.5,0 272.5,0 272.5,0 275.5,0 278.5,-3 278.5,-6 278.5,-6 278.5,-12 278.5,-12 278.5,-15 275.5,-18 272.5,-18"/>
<text text-anchor="middle" x="222.5" y="-6.8" font-family="Helvetica,sans-Serif" font-size="9.00">constantsSiteDetails.js</text>
</a>
</g>
</g>
<!-- fs -->
<g id="node3" class="node">
<title>fs</title>
<path fill="#ffffcc" stroke="grey" d="M243.5,-48C243.5,-48 201.5,-48 201.5,-48 198.5,-48 195.5,-45 195.5,-42 195.5,-42 195.5,-36 195.5,-36 195.5,-33 198.5,-30 201.5,-30 201.5,-30 243.5,-30 243.5,-30 246.5,-30 249.5,-33 249.5,-36 249.5,-36 249.5,-42 249.5,-42 249.5,-45 246.5,-48 243.5,-48"/>
<text text-anchor="middle" x="222.5" y="-36.8" font-family="Helvetica,sans-Serif" font-size="9.00" fill="grey">fs</text>
</g>
<!-- src/CLI/custom&#45;desktop&#45;config.js -->
<g id="node4" class="node">
<title>src/CLI/custom&#45;desktop&#45;config.js</title>
<g id="a_node4"><a xlink:href="src/CLI/custom-desktop-config.js" xlink:title="custom&#45;desktop&#45;config.js">
<path fill="#ffffcc" stroke="black" d="M277,-236C277,-236 168,-236 168,-236 165,-236 162,-233 162,-230 162,-230 162,-224 162,-224 162,-221 165,-218 168,-218 168,-218 277,-218 277,-218 280,-218 283,-221 283,-224 283,-224 283,-230 283,-230 283,-233 280,-236 277,-236"/>
<text text-anchor="middle" x="222.5" y="-224.8" font-family="Helvetica,sans-Serif" font-size="9.00">custom&#45;desktop&#45;config.js</text>
</a>
</g>
</g>
<!-- src/CLI/custom&#45;mobile&#45;config.js -->
<g id="node5" class="node">
<title>src/CLI/custom&#45;mobile&#45;config.js</title>
<g id="a_node5"><a xlink:href="src/CLI/custom-mobile-config.js" xlink:title="custom&#45;mobile&#45;config.js">
<path fill="#ccffcc" stroke="black" d="M134.5,-266C134.5,-266 30.5,-266 30.5,-266 27.5,-266 24.5,-263 24.5,-260 24.5,-260 24.5,-254 24.5,-254 24.5,-251 27.5,-248 30.5,-248 30.5,-248 134.5,-248 134.5,-248 137.5,-248 140.5,-251 140.5,-254 140.5,-254 140.5,-260 140.5,-260 140.5,-263 137.5,-266 134.5,-266"/>
<text text-anchor="middle" x="82.5" y="-254.8" font-family="Helvetica,sans-Serif" font-size="9.00">custom&#45;mobile&#45;config.js</text>
</a>
</g>
</g>
<!-- src/CLI/lighthouseCLI.js -->
<g id="node6" class="node">
<title>src/CLI/lighthouseCLI.js</title>
<g id="a_node6"><a xlink:href="src/CLI/lighthouseCLI.js" xlink:title="lighthouseCLI.js">
<path fill="#ffffcc" stroke="black" d="M118.5,-236C118.5,-236 46.5,-236 46.5,-236 43.5,-236 40.5,-233 40.5,-230 40.5,-230 40.5,-224 40.5,-224 40.5,-221 43.5,-218 46.5,-218 46.5,-218 118.5,-218 118.5,-218 121.5,-218 124.5,-221 124.5,-224 124.5,-224 124.5,-230 124.5,-230 124.5,-233 121.5,-236 118.5,-236"/>
<text text-anchor="middle" x="82.5" y="-224.8" font-family="Helvetica,sans-Serif" font-size="9.00">lighthouseCLI.js</text>
</a>
</g>
</g>
<!-- src/CLI/lighthouseCLI.js&#45;&gt;fs -->
<g id="edge2" class="edge">
<title>src/CLI/lighthouseCLI.js&#45;&gt;fs</title>
<path fill="none" stroke="#000000" stroke-dasharray="5,2" stroke-opacity="0.200000" d="M124.72,-226.91C133.9,-224.89 142.75,-221.01 149,-214 172.74,-187.37 138.95,-81.23 162,-54 168.79,-45.98 179.18,-41.91 189.39,-39.94"/>
<polygon fill="#000000" fill-opacity="0.200000" stroke="#000000" stroke-opacity="0.200000" points="189.75,-42.01 195.35,-39.01 189.1,-37.86 189.75,-42.01"/>
</g>
<!-- src/CLI/lighthouseCLI.js&#45;&gt;src/CLI/custom&#45;desktop&#45;config.js -->
<g id="edge1" class="edge">
<title>src/CLI/lighthouseCLI.js&#45;&gt;src/CLI/custom&#45;desktop&#45;config.js</title>
<path fill="none" stroke="#000000" stroke-width="2" stroke-opacity="0.200000" d="M124.53,-227C134.36,-227 145.1,-227 155.74,-227"/>
<polygon fill="#000000" fill-opacity="0.200000" stroke="#000000" stroke-width="2" stroke-opacity="0.200000" points="155.98,-229.1 161.98,-227 155.98,-224.9 155.98,-229.1"/>
</g>
<!-- src/constants.js -->
<g id="node7" class="node">
<title>src/constants.js</title>
<g id="a_node7"><a xlink:href="src/constants.js" xlink:title="constants.js">
<path fill="#ffffcc" stroke="black" d="M250,-187C250,-187 195,-187 195,-187 192,-187 189,-184 189,-181 189,-181 189,-175 189,-175 189,-172 192,-169 195,-169 195,-169 250,-169 250,-169 253,-169 256,-172 256,-175 256,-175 256,-181 256,-181 256,-184 253,-187 250,-187"/>
<text text-anchor="middle" x="222.5" y="-175.8" font-family="Helvetica,sans-Serif" font-size="9.00">constants.js</text>
</a>
</g>
</g>
<!-- src/getcookies.js -->
<g id="node8" class="node">
<title>src/getcookies.js</title>
<g id="a_node8"><a xlink:href="src/getcookies.js" xlink:title="getcookies.js">
<path fill="#ffffcc" stroke="black" d="M112,-142C112,-142 53,-142 53,-142 50,-142 47,-139 47,-136 47,-136 47,-130 47,-130 47,-127 50,-124 53,-124 53,-124 112,-124 112,-124 115,-124 118,-127 118,-130 118,-130 118,-136 118,-136 118,-139 115,-142 112,-142"/>
<text text-anchor="middle" x="82.5" y="-130.8" font-family="Helvetica,sans-Serif" font-size="9.00">getcookies.js</text>
</a>
</g>
</g>
<!-- src/getcookies.js&#45;&gt;./constantsSiteDetails -->
<g id="edge3" class="edge">
<title>src/getcookies.js&#45;&gt;./constantsSiteDetails</title>
<path fill="none" stroke="#000000" stroke-width="2" stroke-opacity="0.200000" d="M118.07,-131.47C129.03,-129.42 140.49,-125.46 149,-118 161.47,-107.06 149.56,-93.98 162,-83 163.22,-81.92 164.5,-80.93 165.84,-80"/>
<polygon fill="#000000" fill-opacity="0.200000" stroke="#000000" stroke-width="2" stroke-opacity="0.200000" points="167.17,-81.66 171.26,-76.79 165.03,-78.05 167.17,-81.66"/>
</g>
<!-- src/getcookies.js&#45;&gt;fs -->
<g id="edge4" class="edge">
<title>src/getcookies.js&#45;&gt;fs</title>
<path fill="none" stroke="#000000" stroke-dasharray="5,2" stroke-opacity="0.200000" d="M118.09,-132.32C129.31,-130.38 140.94,-126.27 149,-118 169.27,-97.22 141.96,-75 162,-54 169.07,-46.6 179.21,-42.64 189.12,-40.58"/>
<polygon fill="#000000" fill-opacity="0.200000" stroke="#000000" stroke-opacity="0.200000" points="189.68,-42.62 195.23,-39.53 188.97,-38.48 189.68,-42.62"/>
</g>
<!-- src/lighthouseConfig&#45;desktop.js -->
<g id="node9" class="node">
<title>src/lighthouseConfig&#45;desktop.js</title>
<g id="a_node9"><a xlink:href="src/lighthouseConfig-desktop.js" xlink:title="lighthouseConfig&#45;desktop.js">
<path fill="#ffffcc" stroke="black" d="M143,-202C143,-202 22,-202 22,-202 19,-202 16,-199 16,-196 16,-196 16,-190 16,-190 16,-187 19,-184 22,-184 22,-184 143,-184 143,-184 146,-184 149,-187 149,-190 149,-190 149,-196 149,-196 149,-199 146,-202 143,-202"/>
<text text-anchor="middle" x="82.5" y="-190.8" font-family="Helvetica,sans-Serif" font-size="9.00">lighthouseConfig&#45;desktop.js</text>
</a>
</g>
</g>
<!-- src/lighthouseConfig&#45;desktop.js&#45;&gt;./constantsSiteDetails -->
<g id="edge6" class="edge">
<title>src/lighthouseConfig&#45;desktop.js&#45;&gt;./constantsSiteDetails</title>
<path fill="none" stroke="#000000" stroke-width="2" stroke-opacity="0.200000" d="M142.15,-183.85C144.65,-182.18 146.95,-180.24 149,-178 177.76,-146.55 133.33,-114.53 162,-83 163.27,-81.6 164.65,-80.33 166.13,-79.17"/>
<polygon fill="#000000" fill-opacity="0.200000" stroke="#000000" stroke-width="2" stroke-opacity="0.200000" points="167.59,-80.73 171.45,-75.68 165.28,-77.22 167.59,-80.73"/>
</g>
<!-- src/lighthouseConfig&#45;desktop.js&#45;&gt;src/constants.js -->
<g id="edge5" class="edge">
<title>src/lighthouseConfig&#45;desktop.js&#45;&gt;src/constants.js</title>
<path fill="none" stroke="#000000" stroke-width="2" stroke-opacity="0.200000" d="M149.27,-185.85C160.76,-184.6 172.37,-183.34 182.82,-182.2"/>
<polygon fill="#000000" fill-opacity="0.200000" stroke="#000000" stroke-width="2" stroke-opacity="0.200000" points="183.09,-184.29 188.83,-181.55 182.64,-180.11 183.09,-184.29"/>
</g>
<!-- src/lighthouseConfig&#45;mobile.js -->
<g id="node10" class="node">
<title>src/lighthouseConfig&#45;mobile.js</title>
<g id="a_node10"><a xlink:href="src/lighthouseConfig-mobile.js" xlink:title="lighthouseConfig&#45;mobile.js">
<path fill="#ffffcc" stroke="black" d="M140.5,-172C140.5,-172 24.5,-172 24.5,-172 21.5,-172 18.5,-169 18.5,-166 18.5,-166 18.5,-160 18.5,-160 18.5,-157 21.5,-154 24.5,-154 24.5,-154 140.5,-154 140.5,-154 143.5,-154 146.5,-157 146.5,-160 146.5,-160 146.5,-166 146.5,-166 146.5,-169 143.5,-172 140.5,-172"/>
<text text-anchor="middle" x="82.5" y="-160.8" font-family="Helvetica,sans-Serif" font-size="9.00">lighthouseConfig&#45;mobile.js</text>
</a>
</g>
</g>
<!-- src/lighthouseConfig&#45;mobile.js&#45;&gt;./constantsSiteDetails -->
<g id="edge8" class="edge">
<title>src/lighthouseConfig&#45;mobile.js&#45;&gt;./constantsSiteDetails</title>
<path fill="none" stroke="#000000" stroke-width="2" stroke-opacity="0.200000" d="M141.7,-153.89C144.34,-152.21 146.8,-150.26 149,-148 169.54,-126.88 141.52,-104.18 162,-83 163.28,-81.68 164.66,-80.47 166.12,-79.37"/>
<polygon fill="#000000" fill-opacity="0.200000" stroke="#000000" stroke-width="2" stroke-opacity="0.200000" points="167.44,-81.01 171.36,-76.01 165.18,-77.48 167.44,-81.01"/>
</g>
<!-- src/lighthouseConfig&#45;mobile.js&#45;&gt;src/constants.js -->
<g id="edge7" class="edge">
<title>src/lighthouseConfig&#45;mobile.js&#45;&gt;src/constants.js</title>
<path fill="none" stroke="#000000" stroke-width="2" stroke-opacity="0.200000" d="M146.85,-169.89C159.04,-171.21 171.47,-172.56 182.61,-173.77"/>
<polygon fill="#000000" fill-opacity="0.200000" stroke="#000000" stroke-width="2" stroke-opacity="0.200000" points="182.46,-175.87 188.65,-174.43 182.91,-171.69 182.46,-175.87"/>
</g>
<!-- src/preRunPuppeteer.js -->
<g id="node11" class="node">
<title>src/preRunPuppeteer.js</title>
<g id="a_node11"><a xlink:href="src/preRunPuppeteer.js" xlink:title="preRunPuppeteer.js">
<path fill="#ffffcc" stroke="black" d="M126.5,-112C126.5,-112 38.5,-112 38.5,-112 35.5,-112 32.5,-109 32.5,-106 32.5,-106 32.5,-100 32.5,-100 32.5,-97 35.5,-94 38.5,-94 38.5,-94 126.5,-94 126.5,-94 129.5,-94 132.5,-97 132.5,-100 132.5,-100 132.5,-106 132.5,-106 132.5,-109 129.5,-112 126.5,-112"/>
<text text-anchor="middle" x="82.5" y="-100.8" font-family="Helvetica,sans-Serif" font-size="9.00">preRunPuppeteer.js</text>
</a>
</g>
</g>
<!-- src/preRunPuppeteer.js&#45;&gt;constantsSiteDetails.js -->
<g id="edge9" class="edge">
<title>src/preRunPuppeteer.js&#45;&gt;constantsSiteDetails.js</title>
<path fill="none" stroke="#000000" stroke-width="2" stroke-opacity="0.200000" d="M89.91,-93.84C102.01,-77.26 129.91,-42.28 162,-24 164.29,-22.7 166.7,-21.5 169.17,-20.41"/>
<polygon fill="#000000" fill-opacity="0.200000" stroke="#000000" stroke-width="2" stroke-opacity="0.200000" points="170.26,-22.24 175.05,-18.05 168.7,-18.34 170.26,-22.24"/>
</g>
<!-- src/preRunPuppeteer.js&#45;&gt;fs -->
<g id="edge10" class="edge">
<title>src/preRunPuppeteer.js&#45;&gt;fs</title>
<path fill="none" stroke="#000000" stroke-dasharray="5,2" stroke-opacity="0.200000" d="M95.36,-93.94C110.19,-83.01 136.72,-64.76 162,-54 170.68,-50.3 180.48,-47.37 189.59,-45.11"/>
<polygon fill="#000000" fill-opacity="0.200000" stroke="#000000" stroke-opacity="0.200000" points="190.09,-47.15 195.45,-43.72 189.13,-43.06 190.09,-47.15"/>
</g>
</g>
</svg>
