<?xml version="1.0" encoding="UTF-8" standalone="no"?>
<!DOCTYPE svg PUBLIC "-//W3C//DTD SVG 1.1//EN"
 "http://www.w3.org/Graphics/SVG/1.1/DTD/svg11.dtd">
<!-- Generated by graphviz version 2.47.2 (20210527.0053)
 -->
<!-- Title: dependency&#45;cruiser output Pages: 1 -->
<svg width="266pt" height="116pt"
 viewBox="0.00 0.00 266.00 116.00" xmlns="http://www.w3.org/2000/svg" xmlns:xlink="http://www.w3.org/1999/xlink">
<g id="graph0" class="graph" transform="scale(1 1) rotate(0) translate(4 112)">
<title>dependency&#45;cruiser output</title>
<polygon fill="white" stroke="transparent" points="-4,4 -4,-112 262,-112 262,4 -4,4"/>
<!-- constants.js -->
<g id="node1" class="node">
<title>constants.js</title>
<g id="a_node1"><a xlink:href="constants.js" xlink:title="constants.js">
<path fill="#ffffcc" stroke="black" d="M229.5,-93C229.5,-93 174.5,-93 174.5,-93 171.5,-93 168.5,-90 168.5,-87 168.5,-87 168.5,-81 168.5,-81 168.5,-78 171.5,-75 174.5,-75 174.5,-75 229.5,-75 229.5,-75 232.5,-75 235.5,-78 235.5,-81 235.5,-81 235.5,-87 235.5,-87 235.5,-90 232.5,-93 229.5,-93"/>
<text text-anchor="middle" x="202" y="-81.8" font-family="Helvetica,sans-Serif" font-size="9.00">constants.js</text>
</a>
</g>
</g>
<!-- constantsSiteDetails.js -->
<g id="node2" class="node">
<title>constantsSiteDetails.js</title>
<g id="a_node2"><a xlink:href="constantsSiteDetails.js" xlink:title="constantsSiteDetails.js">
<path fill="#ffffcc" stroke="black" d="M252,-48C252,-48 152,-48 152,-48 149,-48 146,-45 146,-42 146,-42 146,-36 146,-36 146,-33 149,-30 152,-30 152,-30 252,-30 252,-30 255,-30 258,-33 258,-36 258,-36 258,-42 258,-42 258,-45 255,-48 252,-48"/>
<text text-anchor="middle" x="202" y="-36.8" font-family="Helvetica,sans-Serif" font-size="9.00">constantsSiteDetails.js</text>
</a>
</g>
</g>
<!-- fs -->
<g id="node3" class="node">
<title>fs</title>
<path fill="#ffffcc" stroke="grey" d="M223,-18C223,-18 181,-18 181,-18 178,-18 175,-15 175,-12 175,-12 175,-6 175,-6 175,-3 178,0 181,0 181,0 223,0 223,0 226,0 229,-3 229,-6 229,-6 229,-12 229,-12 229,-15 226,-18 223,-18"/>
<text text-anchor="middle" x="202" y="-6.8" font-family="Helvetica,sans-Serif" font-size="9.00" fill="grey">fs</text>
</g>
<!-- getcookies.js -->
<g id="node4" class="node">
<title>getcookies.js</title>
<g id="a_node4"><a xlink:href="getcookies.js" xlink:title="getcookies.js">
<path fill="#ffffcc" stroke="black" d="M96,-48C96,-48 37,-48 37,-48 34,-48 31,-45 31,-42 31,-42 31,-36 31,-36 31,-33 34,-30 37,-30 37,-30 96,-30 96,-30 99,-30 102,-33 102,-36 102,-36 102,-42 102,-42 102,-45 99,-48 96,-48"/>
<text text-anchor="middle" x="66.5" y="-36.8" font-family="Helvetica,sans-Serif" font-size="9.00">getcookies.js</text>
</a>
</g>
</g>
<!-- getcookies.js&#45;&gt;constantsSiteDetails.js -->
<g id="edge1" class="edge">
<title>getcookies.js&#45;&gt;constantsSiteDetails.js</title>
<path fill="none" stroke="#000000" stroke-width="2" stroke-opacity="0.200000" d="M102.23,-39C113.65,-39 126.7,-39 139.5,-39"/>
<polygon fill="#000000" fill-opacity="0.200000" stroke="#000000" stroke-width="2" stroke-opacity="0.200000" points="139.76,-41.1 145.76,-39 139.76,-36.9 139.76,-41.1"/>
</g>
<!-- getcookies.js&#45;&gt;fs -->
<g id="edge2" class="edge">
<title>getcookies.js&#45;&gt;fs</title>
<path fill="none" stroke="#000000" stroke-dasharray="5,2" stroke-opacity="0.200000" d="M102.23,-31.2C122.81,-26.57 148.72,-20.75 168.84,-16.23"/>
<polygon fill="#000000" fill-opacity="0.200000" stroke="#000000" stroke-opacity="0.200000" points="169.49,-18.23 174.88,-14.87 168.57,-14.14 169.49,-18.23"/>
</g>
<!-- lighthouseConfig&#45;desktop.js -->
<g id="node5" class="node">
<title>lighthouseConfig&#45;desktop.js</title>
<g id="a_node5"><a xlink:href="lighthouseConfig-desktop.js" xlink:title="lighthouseConfig&#45;desktop.js">
<path fill="#ffffcc" stroke="black" d="M127,-108C127,-108 6,-108 6,-108 3,-108 0,-105 0,-102 0,-102 0,-96 0,-96 0,-93 3,-90 6,-90 6,-90 127,-90 127,-90 130,-90 133,-93 133,-96 133,-96 133,-102 133,-102 133,-105 130,-108 127,-108"/>
<text text-anchor="middle" x="66.5" y="-96.8" font-family="Helvetica,sans-Serif" font-size="9.00">lighthouseConfig&#45;desktop.js</text>
</a>
</g>
</g>
<!-- lighthouseConfig&#45;desktop.js&#45;&gt;constants.js -->
<g id="edge3" class="edge">
<title>lighthouseConfig&#45;desktop.js&#45;&gt;constants.js</title>
<path fill="none" stroke="#000000" stroke-width="2" stroke-opacity="0.200000" d="M133.08,-91.63C143.04,-90.51 153.04,-89.39 162.19,-88.36"/>
<polygon fill="#000000" fill-opacity="0.200000" stroke="#000000" stroke-width="2" stroke-opacity="0.200000" points="162.64,-90.42 168.37,-87.67 162.18,-86.25 162.64,-90.42"/>
</g>
<!-- lighthouseConfig&#45;desktop.js&#45;&gt;constantsSiteDetails.js -->
<g id="edge4" class="edge">
<title>lighthouseConfig&#45;desktop.js&#45;&gt;constantsSiteDetails.js</title>
<path fill="none" stroke="#000000" stroke-width="2" stroke-opacity="0.200000" d="M120.5,-89.99C124.87,-88.32 129.1,-86.34 133,-84 140.56,-79.46 139.13,-74.53 146,-69 154.71,-61.99 165.3,-55.77 174.85,-50.83"/>
<polygon fill="#000000" fill-opacity="0.200000" stroke="#000000" stroke-width="2" stroke-opacity="0.200000" points="175.91,-52.65 180.33,-48.08 174.02,-48.9 175.91,-52.65"/>
</g>
<!-- lighthouseConfig&#45;mobile.js -->
<g id="node6" class="node">
<title>lighthouseConfig&#45;mobile.js</title>
<g id="a_node6"><a xlink:href="lighthouseConfig-mobile.js" xlink:title="lighthouseConfig&#45;mobile.js">
<path fill="#ffffcc" stroke="black" d="M124.5,-78C124.5,-78 8.5,-78 8.5,-78 5.5,-78 2.5,-75 2.5,-72 2.5,-72 2.5,-66 2.5,-66 2.5,-63 5.5,-60 8.5,-60 8.5,-60 124.5,-60 124.5,-60 127.5,-60 130.5,-63 130.5,-66 130.5,-66 130.5,-72 130.5,-72 130.5,-75 127.5,-78 124.5,-78"/>
<text text-anchor="middle" x="66.5" y="-66.8" font-family="Helvetica,sans-Serif" font-size="9.00">lighthouseConfig&#45;mobile.js</text>
</a>
</g>
</g>
<!-- lighthouseConfig&#45;mobile.js&#45;&gt;constants.js -->
<g id="edge5" class="edge">
<title>lighthouseConfig&#45;mobile.js&#45;&gt;constants.js</title>
<path fill="none" stroke="#000000" stroke-width="2" stroke-opacity="0.200000" d="M130.73,-76.1C141.56,-77.32 152.51,-78.55 162.44,-79.67"/>
<polygon fill="#000000" fill-opacity="0.200000" stroke="#000000" stroke-width="2" stroke-opacity="0.200000" points="162.29,-81.76 168.48,-80.35 162.75,-77.59 162.29,-81.76"/>
</g>
<!-- lighthouseConfig&#45;mobile.js&#45;&gt;constantsSiteDetails.js -->
<g id="edge6" class="edge">
<title>lighthouseConfig&#45;mobile.js&#45;&gt;constantsSiteDetails.js</title>
<path fill="none" stroke="#000000" stroke-width="2" stroke-opacity="0.200000" d="M107.55,-60C122.34,-56.68 139.21,-52.89 154.51,-49.45"/>
<polygon fill="#000000" fill-opacity="0.200000" stroke="#000000" stroke-width="2" stroke-opacity="0.200000" points="155.12,-51.46 160.51,-48.1 154.2,-47.37 155.12,-51.46"/>
</g>
<!-- preRunPuppeteer.js -->
<g id="node7" class="node">
<title>preRunPuppeteer.js</title>
<g id="a_node7"><a xlink:href="preRunPuppeteer.js" xlink:title="preRunPuppeteer.js">
<path fill="#ffffcc" stroke="black" d="M110.5,-18C110.5,-18 22.5,-18 22.5,-18 19.5,-18 16.5,-15 16.5,-12 16.5,-12 16.5,-6 16.5,-6 16.5,-3 19.5,0 22.5,0 22.5,0 110.5,0 110.5,0 113.5,0 116.5,-3 116.5,-6 116.5,-6 116.5,-12 116.5,-12 116.5,-15 113.5,-18 110.5,-18"/>
<text text-anchor="middle" x="66.5" y="-6.8" font-family="Helvetica,sans-Serif" font-size="9.00">preRunPuppeteer.js</text>
</a>
</g>
</g>
<!-- preRunPuppeteer.js&#45;&gt;constantsSiteDetails.js -->
<g id="edge7" class="edge">
<title>preRunPuppeteer.js&#45;&gt;constantsSiteDetails.js</title>
<path fill="none" stroke="#000000" stroke-width="2" stroke-opacity="0.200000" d="M107.55,-18C122.34,-21.32 139.21,-25.11 154.51,-28.55"/>
<polygon fill="#000000" fill-opacity="0.200000" stroke="#000000" stroke-width="2" stroke-opacity="0.200000" points="154.2,-30.63 160.51,-29.9 155.12,-26.54 154.2,-30.63"/>
</g>
<!-- preRunPuppeteer.js&#45;&gt;fs -->
<g id="edge8" class="edge">
<title>preRunPuppeteer.js&#45;&gt;fs</title>
<path fill="none" stroke="#000000" stroke-dasharray="5,2" stroke-opacity="0.200000" d="M116.83,-9C134.14,-9 153.13,-9 168.69,-9"/>
<polygon fill="#000000" fill-opacity="0.200000" stroke="#000000" stroke-opacity="0.200000" points="168.69,-11.1 174.69,-9 168.69,-6.9 168.69,-11.1"/>
</g>
</g>
</svg>
