<?xml version="1.0" encoding="UTF-8" standalone="no"?>
<!DOCTYPE svg PUBLIC "-//W3C//DTD SVG 1.1//EN"
 "http://www.w3.org/Graphics/SVG/1.1/DTD/svg11.dtd">
<!-- Generated by graphviz version 2.47.2 (20210527.0053)
 -->
<!-- Title: dependency&#45;cruiser output Pages: 1 -->
<svg width="266pt" height="184pt"
 viewBox="0.00 0.00 266.00 184.00" xmlns="http://www.w3.org/2000/svg" xmlns:xlink="http://www.w3.org/1999/xlink">
<g id="graph0" class="graph" transform="scale(1 1) rotate(0) translate(4 180)">
<title>dependency&#45;cruiser output</title>
<polygon fill="white" stroke="transparent" points="-4,4 -4,-180 262,-180 262,4 -4,4"/>
<g id="clust1" class="cluster">
<title>cluster_CLI</title>
<path fill="#ffffff" stroke="black" stroke-width="2" d="M28.5,-8C28.5,-8 104.5,-8 104.5,-8 110.5,-8 116.5,-14 116.5,-20 116.5,-20 116.5,-48 116.5,-48 116.5,-54 110.5,-60 104.5,-60 104.5,-60 28.5,-60 28.5,-60 22.5,-60 16.5,-54 16.5,-48 16.5,-48 16.5,-20 16.5,-20 16.5,-14 22.5,-8 28.5,-8"/>
<text text-anchor="middle" x="66.5" y="-48.8" font-family="Helvetica,sans-Serif" font-weight="bold" font-size="9.00">CLI</text>
</g>
<g id="clust2" class="cluster">
<title>cluster_path</title>
<path fill="#ffffff" stroke="black" stroke-width="2" d="M179,-8C179,-8 225,-8 225,-8 231,-8 237,-14 237,-20 237,-20 237,-48 237,-48 237,-54 231,-60 225,-60 225,-60 179,-60 179,-60 173,-60 167,-54 167,-48 167,-48 167,-20 167,-20 167,-14 173,-8 179,-8"/>
<text text-anchor="middle" x="202" y="-48.8" font-family="Helvetica,sans-Serif" font-weight="bold" font-size="9.00">path</text>
</g>
<!-- CLI/lighthouseCLI.js -->
<g id="node1" class="node">
<title>CLI/lighthouseCLI.js</title>
<g id="a_node1"><a xlink:href="CLI/lighthouseCLI.js" xlink:title="lighthouseCLI.js">
<path fill="#ffffcc" stroke="black" d="M102.5,-34C102.5,-34 30.5,-34 30.5,-34 27.5,-34 24.5,-31 24.5,-28 24.5,-28 24.5,-22 24.5,-22 24.5,-19 27.5,-16 30.5,-16 30.5,-16 102.5,-16 102.5,-16 105.5,-16 108.5,-19 108.5,-22 108.5,-22 108.5,-28 108.5,-28 108.5,-31 105.5,-34 102.5,-34"/>
<text text-anchor="middle" x="66.5" y="-22.8" font-family="Helvetica,sans-Serif" font-size="9.00">lighthouseCLI.js</text>
</a>
</g>
</g>
<!-- fs -->
<g id="node2" class="node">
<title>fs</title>
<path fill="#ffffcc" stroke="grey" d="M223,-86C223,-86 181,-86 181,-86 178,-86 175,-83 175,-80 175,-80 175,-74 175,-74 175,-71 178,-68 181,-68 181,-68 223,-68 223,-68 226,-68 229,-71 229,-74 229,-74 229,-80 229,-80 229,-83 226,-86 223,-86"/>
<text text-anchor="middle" x="202" y="-74.8" font-family="Helvetica,sans-Serif" font-size="9.00" fill="grey">fs</text>
</g>
<!-- CLI/lighthouseCLI.js&#45;&gt;fs -->
<g id="edge1" class="edge">
<title>CLI/lighthouseCLI.js&#45;&gt;fs</title>
<path fill="none" stroke="#000000" stroke-dasharray="5,2" stroke-opacity="0.200000" d="M83.92,-34.16C99.52,-42.56 123.81,-54.9 146,-63 153.23,-65.64 161.17,-67.97 168.71,-69.94"/>
<polygon fill="#000000" fill-opacity="0.200000" stroke="#000000" stroke-opacity="0.200000" points="168.6,-72.08 174.93,-71.5 169.63,-68 168.6,-72.08"/>
</g>
<!-- path/posix -->
<g id="node3" class="node">
<title>path/posix</title>
<path fill="#ffffcc" stroke="grey" d="M223,-34C223,-34 181,-34 181,-34 178,-34 175,-31 175,-28 175,-28 175,-22 175,-22 175,-19 178,-16 181,-16 181,-16 223,-16 223,-16 226,-16 229,-19 229,-22 229,-22 229,-28 229,-28 229,-31 226,-34 223,-34"/>
<text text-anchor="middle" x="202" y="-22.8" font-family="Helvetica,sans-Serif" font-size="9.00" fill="grey">posix</text>
</g>
<!-- CLI/lighthouseCLI.js&#45;&gt;path/posix -->
<g id="edge2" class="edge">
<title>CLI/lighthouseCLI.js&#45;&gt;path/posix</title>
<path fill="none" stroke="#000000" stroke-dasharray="5,2" stroke-opacity="0.200000" d="M108.64,-25C127.89,-25 150.47,-25 168.49,-25"/>
<polygon fill="#000000" fill-opacity="0.200000" stroke="#000000" stroke-opacity="0.200000" points="168.91,-27.1 174.91,-25 168.91,-22.9 168.91,-27.1"/>
</g>
<!-- constants.js -->
<g id="node4" class="node">
<title>constants.js</title>
<g id="a_node4"><a xlink:href="constants.js" xlink:title="constants.js">
<path fill="#ffffcc" stroke="black" d="M229.5,-168C229.5,-168 174.5,-168 174.5,-168 171.5,-168 168.5,-165 168.5,-162 168.5,-162 168.5,-156 168.5,-156 168.5,-153 171.5,-150 174.5,-150 174.5,-150 229.5,-150 229.5,-150 232.5,-150 235.5,-153 235.5,-156 235.5,-156 235.5,-162 235.5,-162 235.5,-165 232.5,-168 229.5,-168"/>
<text text-anchor="middle" x="202" y="-156.8" font-family="Helvetica,sans-Serif" font-size="9.00">constants.js</text>
</a>
</g>
</g>
<!-- constantsSiteDetails.js -->
<g id="node5" class="node">
<title>constantsSiteDetails.js</title>
<g id="a_node5"><a xlink:href="constantsSiteDetails.js" xlink:title="constantsSiteDetails.js">
<path fill="#ffffcc" stroke="black" d="M252,-131C252,-131 152,-131 152,-131 149,-131 146,-128 146,-125 146,-125 146,-119 146,-119 146,-116 149,-113 152,-113 152,-113 252,-113 252,-113 255,-113 258,-116 258,-119 258,-119 258,-125 258,-125 258,-128 255,-131 252,-131"/>
<text text-anchor="middle" x="202" y="-119.8" font-family="Helvetica,sans-Serif" font-size="9.00">constantsSiteDetails.js</text>
</a>
</g>
</g>
<!-- getcookies.js -->
<g id="node6" class="node">
<title>getcookies.js</title>
<g id="a_node6"><a xlink:href="getcookies.js" xlink:title="getcookies.js">
<path fill="#ffffcc" stroke="black" d="M96,-116C96,-116 37,-116 37,-116 34,-116 31,-113 31,-110 31,-110 31,-104 31,-104 31,-101 34,-98 37,-98 37,-98 96,-98 96,-98 99,-98 102,-101 102,-104 102,-104 102,-110 102,-110 102,-113 99,-116 96,-116"/>
<text text-anchor="middle" x="66.5" y="-104.8" font-family="Helvetica,sans-Serif" font-size="9.00">getcookies.js</text>
</a>
</g>
</g>
<!-- getcookies.js&#45;&gt;fs -->
<g id="edge4" class="edge">
<title>getcookies.js&#45;&gt;fs</title>
<path fill="none" stroke="#000000" stroke-dasharray="5,2" stroke-opacity="0.200000" d="M102.23,-99.2C122.81,-94.57 148.72,-88.75 168.84,-84.23"/>
<polygon fill="#000000" fill-opacity="0.200000" stroke="#000000" stroke-opacity="0.200000" points="169.49,-86.23 174.88,-82.87 168.57,-82.14 169.49,-86.23"/>
</g>
<!-- getcookies.js&#45;&gt;constantsSiteDetails.js -->
<g id="edge3" class="edge">
<title>getcookies.js&#45;&gt;constantsSiteDetails.js</title>
<path fill="none" stroke="#000000" stroke-width="2" stroke-opacity="0.200000" d="M102.23,-110.9C113.65,-112.19 126.7,-113.65 139.5,-115.09"/>
<polygon fill="#000000" fill-opacity="0.200000" stroke="#000000" stroke-width="2" stroke-opacity="0.200000" points="139.56,-117.21 145.76,-115.79 140.03,-113.04 139.56,-117.21"/>
</g>
<!-- lighthouseConfig&#45;desktop.js -->
<g id="node7" class="node">
<title>lighthouseConfig&#45;desktop.js</title>
<g id="a_node7"><a xlink:href="lighthouseConfig-desktop.js" xlink:title="lighthouseConfig&#45;desktop.js">
<path fill="#ffffcc" stroke="black" d="M127,-146C127,-146 6,-146 6,-146 3,-146 0,-143 0,-140 0,-140 0,-134 0,-134 0,-131 3,-128 6,-128 6,-128 127,-128 127,-128 130,-128 133,-131 133,-134 133,-134 133,-140 133,-140 133,-143 130,-146 127,-146"/>
<text text-anchor="middle" x="66.5" y="-134.8" font-family="Helvetica,sans-Serif" font-size="9.00">lighthouseConfig&#45;desktop.js</text>
</a>
</g>
</g>
<!-- lighthouseConfig&#45;desktop.js&#45;&gt;constants.js -->
<g id="edge5" class="edge">
<title>lighthouseConfig&#45;desktop.js&#45;&gt;constants.js</title>
<path fill="none" stroke="#000000" stroke-width="2" stroke-opacity="0.200000" d="M122.18,-146.01C135.67,-148.23 149.85,-150.57 162.39,-152.64"/>
<polygon fill="#000000" fill-opacity="0.200000" stroke="#000000" stroke-width="2" stroke-opacity="0.200000" points="162.15,-154.73 168.41,-153.63 162.83,-150.58 162.15,-154.73"/>
</g>
<!-- lighthouseConfig&#45;desktop.js&#45;&gt;constantsSiteDetails.js -->
<g id="edge6" class="edge">
<title>lighthouseConfig&#45;desktop.js&#45;&gt;constantsSiteDetails.js</title>
<path fill="none" stroke="#000000" stroke-width="2" stroke-opacity="0.200000" d="M133.08,-129.63C135.19,-129.39 137.3,-129.16 139.4,-128.92"/>
<polygon fill="#000000" fill-opacity="0.200000" stroke="#000000" stroke-width="2" stroke-opacity="0.200000" points="139.96,-130.97 145.69,-128.21 139.49,-126.8 139.96,-130.97"/>
</g>
<!-- lighthouseConfig&#45;mobile.js -->
<g id="node8" class="node">
<title>lighthouseConfig&#45;mobile.js</title>
<g id="a_node8"><a xlink:href="lighthouseConfig-mobile.js" xlink:title="lighthouseConfig&#45;mobile.js">
<path fill="#ffffcc" stroke="black" d="M124.5,-176C124.5,-176 8.5,-176 8.5,-176 5.5,-176 2.5,-173 2.5,-170 2.5,-170 2.5,-164 2.5,-164 2.5,-161 5.5,-158 8.5,-158 8.5,-158 124.5,-158 124.5,-158 127.5,-158 130.5,-161 130.5,-164 130.5,-164 130.5,-170 130.5,-170 130.5,-173 127.5,-176 124.5,-176"/>
<text text-anchor="middle" x="66.5" y="-164.8" font-family="Helvetica,sans-Serif" font-size="9.00">lighthouseConfig&#45;mobile.js</text>
</a>
</g>
</g>
<!-- lighthouseConfig&#45;mobile.js&#45;&gt;constants.js -->
<g id="edge7" class="edge">
<title>lighthouseConfig&#45;mobile.js&#45;&gt;constants.js</title>
<path fill="none" stroke="#000000" stroke-width="2" stroke-opacity="0.200000" d="M130.73,-163.21C141.56,-162.56 152.51,-161.91 162.44,-161.31"/>
<polygon fill="#000000" fill-opacity="0.200000" stroke="#000000" stroke-width="2" stroke-opacity="0.200000" points="162.62,-163.4 168.48,-160.95 162.37,-159.21 162.62,-163.4"/>
</g>
<!-- lighthouseConfig&#45;mobile.js&#45;&gt;constantsSiteDetails.js -->
<g id="edge8" class="edge">
<title>lighthouseConfig&#45;mobile.js&#45;&gt;constantsSiteDetails.js</title>
<path fill="none" stroke="#000000" stroke-width="2" stroke-opacity="0.200000" d="M115.29,-157.98C121.35,-156.28 127.39,-154.3 133,-152 139.28,-149.43 139.94,-147.05 146,-144 153.54,-140.21 161.9,-136.58 169.78,-133.41"/>
<polygon fill="#000000" fill-opacity="0.200000" stroke="#000000" stroke-width="2" stroke-opacity="0.200000" points="170.88,-135.24 175.69,-131.08 169.33,-131.33 170.88,-135.24"/>
</g>
<!-- preRunPuppeteer.js -->
<g id="node9" class="node">
<title>preRunPuppeteer.js</title>
<g id="a_node9"><a xlink:href="preRunPuppeteer.js" xlink:title="preRunPuppeteer.js">
<path fill="#ffffcc" stroke="black" d="M110.5,-86C110.5,-86 22.5,-86 22.5,-86 19.5,-86 16.5,-83 16.5,-80 16.5,-80 16.5,-74 16.5,-74 16.5,-71 19.5,-68 22.5,-68 22.5,-68 110.5,-68 110.5,-68 113.5,-68 116.5,-71 116.5,-74 116.5,-74 116.5,-80 116.5,-80 116.5,-83 113.5,-86 110.5,-86"/>
<text text-anchor="middle" x="66.5" y="-74.8" font-family="Helvetica,sans-Serif" font-size="9.00">preRunPuppeteer.js</text>
</a>
</g>
</g>
<!-- preRunPuppeteer.js&#45;&gt;fs -->
<g id="edge10" class="edge">
<title>preRunPuppeteer.js&#45;&gt;fs</title>
<path fill="none" stroke="#000000" stroke-dasharray="5,2" stroke-opacity="0.200000" d="M116.83,-77C134.14,-77 153.13,-77 168.69,-77"/>
<polygon fill="#000000" fill-opacity="0.200000" stroke="#000000" stroke-opacity="0.200000" points="168.69,-79.1 174.69,-77 168.69,-74.9 168.69,-79.1"/>
</g>
<!-- preRunPuppeteer.js&#45;&gt;constantsSiteDetails.js -->
<g id="edge9" class="edge">
<title>preRunPuppeteer.js&#45;&gt;constantsSiteDetails.js</title>
<path fill="none" stroke="#000000" stroke-width="2" stroke-opacity="0.200000" d="M112.21,-86.04C119.23,-87.8 126.36,-89.8 133,-92 148.08,-97 164.39,-104.13 177.25,-110.19"/>
<polygon fill="#000000" fill-opacity="0.200000" stroke="#000000" stroke-width="2" stroke-opacity="0.200000" points="176.58,-112.2 182.9,-112.88 178.39,-108.41 176.58,-112.2"/>
</g>
</g>
</svg>
