<?xml version="1.0" encoding="UTF-8" standalone="no"?>
<!DOCTYPE svg PUBLIC "-//W3C//DTD SVG 1.1//EN"
 "http://www.w3.org/Graphics/SVG/1.1/DTD/svg11.dtd">
<!-- Generated by graphviz version 2.47.2 (20210527.0053)
 -->
<!-- Title: dependency&#45;cruiser output Pages: 1 -->
<svg width="233pt" height="86pt"
 viewBox="0.00 0.00 233.00 86.00" xmlns="http://www.w3.org/2000/svg" xmlns:xlink="http://www.w3.org/1999/xlink">
<g id="graph0" class="graph" transform="scale(1 1) rotate(0) translate(4 82)">
<title>dependency&#45;cruiser output</title>
<polygon fill="white" stroke="transparent" points="-4,4 -4,-82 229,-82 229,4 -4,4"/>
<!-- constants.js -->
<g id="node1" class="node">
<title>constants.js</title>
<g id="a_node1"><a xlink:href="constants.js" xlink:title="constants.js">
<path fill="#ffffcc" stroke="black" d="M196.5,-78C196.5,-78 141.5,-78 141.5,-78 138.5,-78 135.5,-75 135.5,-72 135.5,-72 135.5,-66 135.5,-66 135.5,-63 138.5,-60 141.5,-60 141.5,-60 196.5,-60 196.5,-60 199.5,-60 202.5,-63 202.5,-66 202.5,-66 202.5,-72 202.5,-72 202.5,-75 199.5,-78 196.5,-78"/>
<text text-anchor="middle" x="169" y="-66.8" font-family="Helvetica,sans-Serif" font-size="9.00">constants.js</text>
</a>
</g>
</g>
<!-- constantsSiteDetails.js -->
<g id="node2" class="node">
<title>constantsSiteDetails.js</title>
<g id="a_node2"><a xlink:href="constantsSiteDetails.js" xlink:title="constantsSiteDetails.js">
<path fill="#ffffcc" stroke="black" d="M219,-48C219,-48 119,-48 119,-48 116,-48 113,-45 113,-42 113,-42 113,-36 113,-36 113,-33 116,-30 119,-30 119,-30 219,-30 219,-30 222,-30 225,-33 225,-36 225,-36 225,-42 225,-42 225,-45 222,-48 219,-48"/>
<text text-anchor="middle" x="169" y="-36.8" font-family="Helvetica,sans-Serif" font-size="9.00">constantsSiteDetails.js</text>
</a>
</g>
</g>
<!-- fs -->
<g id="node3" class="node">
<title>fs</title>
<path fill="#ffffcc" stroke="grey" d="M190,-18C190,-18 148,-18 148,-18 145,-18 142,-15 142,-12 142,-12 142,-6 142,-6 142,-3 145,0 148,0 148,0 190,0 190,0 193,0 196,-3 196,-6 196,-6 196,-12 196,-12 196,-15 193,-18 190,-18"/>
<text text-anchor="middle" x="169" y="-6.8" font-family="Helvetica,sans-Serif" font-size="9.00" fill="grey">fs</text>
</g>
<!-- getcookies.js -->
<g id="node4" class="node">
<title>getcookies.js</title>
<g id="a_node4"><a xlink:href="getcookies.js" xlink:title="getcookies.js">
<path fill="#ffffcc" stroke="black" d="M79.5,-18C79.5,-18 20.5,-18 20.5,-18 17.5,-18 14.5,-15 14.5,-12 14.5,-12 14.5,-6 14.5,-6 14.5,-3 17.5,0 20.5,0 20.5,0 79.5,0 79.5,0 82.5,0 85.5,-3 85.5,-6 85.5,-6 85.5,-12 85.5,-12 85.5,-15 82.5,-18 79.5,-18"/>
<text text-anchor="middle" x="50" y="-6.8" font-family="Helvetica,sans-Serif" font-size="9.00">getcookies.js</text>
</a>
</g>
</g>
<!-- getcookies.js&#45;&gt;constantsSiteDetails.js -->
<g id="edge1" class="edge">
<title>getcookies.js&#45;&gt;constantsSiteDetails.js</title>
<path fill="none" stroke="#000000" stroke-width="2" stroke-opacity="0.200000" d="M85.79,-17.92C98.64,-21.21 113.33,-24.98 126.7,-28.41"/>
<polygon fill="#000000" fill-opacity="0.200000" stroke="#000000" stroke-width="2" stroke-opacity="0.200000" points="126.41,-30.5 132.74,-29.96 127.45,-26.43 126.41,-30.5"/>
</g>
<!-- getcookies.js&#45;&gt;fs -->
<g id="edge2" class="edge">
<title>getcookies.js&#45;&gt;fs</title>
<path fill="none" stroke="#000000" stroke-dasharray="5,2" stroke-opacity="0.200000" d="M85.79,-9C101.47,-9 119.88,-9 135.3,-9"/>
<polygon fill="#000000" fill-opacity="0.200000" stroke="#000000" stroke-opacity="0.200000" points="135.71,-11.1 141.71,-9 135.71,-6.9 135.71,-11.1"/>
</g>
<!-- lighthouseConfig.js -->
<g id="node5" class="node">
<title>lighthouseConfig.js</title>
<g id="a_node5"><a xlink:href="lighthouseConfig.js" xlink:title="lighthouseConfig.js">
<path fill="#ffffcc" stroke="black" d="M92.5,-78C92.5,-78 7.5,-78 7.5,-78 4.5,-78 1.5,-75 1.5,-72 1.5,-72 1.5,-66 1.5,-66 1.5,-63 4.5,-60 7.5,-60 7.5,-60 92.5,-60 92.5,-60 95.5,-60 98.5,-63 98.5,-66 98.5,-66 98.5,-72 98.5,-72 98.5,-75 95.5,-78 92.5,-78"/>
<text text-anchor="middle" x="50" y="-66.8" font-family="Helvetica,sans-Serif" font-size="9.00">lighthouseConfig.js</text>
</a>
</g>
</g>
<!-- lighthouseConfig.js&#45;&gt;constants.js -->
<g id="edge3" class="edge">
<title>lighthouseConfig.js&#45;&gt;constants.js</title>
<path fill="none" stroke="#000000" stroke-width="2" stroke-opacity="0.200000" d="M98.59,-69C108.86,-69 119.59,-69 129.46,-69"/>
<polygon fill="#000000" fill-opacity="0.200000" stroke="#000000" stroke-width="2" stroke-opacity="0.200000" points="129.49,-71.1 135.49,-69 129.49,-66.9 129.49,-71.1"/>
</g>
<!-- lighthouseConfig.js&#45;&gt;constantsSiteDetails.js -->
<g id="edge4" class="edge">
<title>lighthouseConfig.js&#45;&gt;constantsSiteDetails.js</title>
<path fill="none" stroke="#000000" stroke-width="2" stroke-opacity="0.200000" d="M86.1,-60C98.83,-56.74 113.32,-53.02 126.54,-49.63"/>
<polygon fill="#000000" fill-opacity="0.200000" stroke="#000000" stroke-width="2" stroke-opacity="0.200000" points="127.23,-51.62 132.52,-48.1 126.18,-47.55 127.23,-51.62"/>
</g>
<!-- preRunPuppeteer.js -->
<g id="node6" class="node">
<title>preRunPuppeteer.js</title>
<g id="a_node6"><a xlink:href="preRunPuppeteer.js" xlink:title="preRunPuppeteer.js">
<path fill="#ffffcc" stroke="black" d="M94,-48C94,-48 6,-48 6,-48 3,-48 0,-45 0,-42 0,-42 0,-36 0,-36 0,-33 3,-30 6,-30 6,-30 94,-30 94,-30 97,-30 100,-33 100,-36 100,-36 100,-42 100,-42 100,-45 97,-48 94,-48"/>
<text text-anchor="middle" x="50" y="-36.8" font-family="Helvetica,sans-Serif" font-size="9.00">preRunPuppeteer.js</text>
</a>
</g>
</g>
<!-- preRunPuppeteer.js&#45;&gt;constantsSiteDetails.js -->
<g id="edge5" class="edge">
<title>preRunPuppeteer.js&#45;&gt;constantsSiteDetails.js</title>
<path fill="none" stroke="#000000" stroke-width="2" stroke-opacity="0.200000" d="M100.28,-39C102.34,-39 104.42,-39 106.5,-39"/>
<polygon fill="#000000" fill-opacity="0.200000" stroke="#000000" stroke-width="2" stroke-opacity="0.200000" points="106.75,-41.1 112.75,-39 106.75,-36.9 106.75,-41.1"/>
</g>
<!-- preRunPuppeteer.js&#45;&gt;fs -->
<g id="edge6" class="edge">
<title>preRunPuppeteer.js&#45;&gt;fs</title>
<path fill="none" stroke="#000000" stroke-dasharray="5,2" stroke-opacity="0.200000" d="M86.1,-30C101.91,-25.95 120.45,-21.19 135.88,-17.24"/>
<polygon fill="#000000" fill-opacity="0.200000" stroke="#000000" stroke-opacity="0.200000" points="136.56,-19.23 141.85,-15.71 135.52,-15.16 136.56,-19.23"/>
</g>
</g>
</svg>
