<?xml version="1.0" encoding="UTF-8" standalone="no"?>
<!DOCTYPE svg PUBLIC "-//W3C//DTD SVG 1.1//EN"
 "http://www.w3.org/Graphics/SVG/1.1/DTD/svg11.dtd">
<!-- Generated by graphviz version 2.47.2 (20210527.0053)
 -->
<!-- Title: dependency&#45;cruiser output Pages: 1 -->
<svg width="315pt" height="424pt"
 viewBox="0.00 0.00 315.00 424.00" xmlns="http://www.w3.org/2000/svg" xmlns:xlink="http://www.w3.org/1999/xlink">
<g id="graph0" class="graph" transform="scale(1 1) rotate(0) translate(4 420)">
<title>dependency&#45;cruiser output</title>
<polygon fill="white" stroke="transparent" points="-4,4 -4,-420 311,-420 311,4 -4,4"/>
<g id="clust1" class="cluster">
<title>cluster_src</title>
<path fill="#ffffff" stroke="black" stroke-width="2" d="M20,-146C20,-146 287,-146 287,-146 293,-146 299,-152 299,-158 299,-158 299,-396 299,-396 299,-402 293,-408 287,-408 287,-408 20,-408 20,-408 14,-408 8,-402 8,-396 8,-396 8,-158 8,-158 8,-152 14,-146 20,-146"/>
<text text-anchor="middle" x="153.5" y="-396.8" font-family="Helvetica,sans-Serif" font-weight="bold" font-size="9.00">src</text>
</g>
<g id="clust2" class="cluster">
<title>cluster_src/CLI</title>
<path fill="#ffffff" stroke="black" stroke-width="2" d="M44.5,-270C44.5,-270 279,-270 279,-270 285,-270 291,-276 291,-282 291,-282 291,-370 291,-370 291,-376 285,-382 279,-382 279,-382 44.5,-382 44.5,-382 38.5,-382 32.5,-376 32.5,-370 32.5,-370 32.5,-282 32.5,-282 32.5,-276 38.5,-270 44.5,-270"/>
<text text-anchor="middle" x="161.75" y="-370.8" font-family="Helvetica,sans-Serif" font-weight="bold" font-size="9.00">CLI</text>
</g>
<!-- ./constantsSiteDetails -->
<g id="node1" class="node">
<title>./constantsSiteDetails</title>
<path fill="#ffffcc" stroke="red" d="M267.5,-78C267.5,-78 177.5,-78 177.5,-78 174.5,-78 171.5,-75 171.5,-72 171.5,-72 171.5,-66 171.5,-66 171.5,-63 174.5,-60 177.5,-60 177.5,-60 267.5,-60 267.5,-60 270.5,-60 273.5,-63 273.5,-66 273.5,-66 273.5,-72 273.5,-72 273.5,-75 270.5,-78 267.5,-78"/>
<text text-anchor="middle" x="222.5" y="-66.8" font-family="Helvetica,sans-Serif" font-size="9.00" fill="red">constantsSiteDetails</text>
</g>
<!-- constantsSiteDetails.js -->
<g id="node2" class="node">
<title>constantsSiteDetails.js</title>
<g id="a_node2"><a xlink:href="constantsSiteDetails.js" xlink:title="constantsSiteDetails.js">
<path fill="#ffffcc" stroke="black" d="M272.5,-18C272.5,-18 172.5,-18 172.5,-18 169.5,-18 166.5,-15 166.5,-12 166.5,-12 166.5,-6 166.5,-6 166.5,-3 169.5,0 172.5,0 172.5,0 272.5,0 272.5,0 275.5,0 278.5,-3 278.5,-6 278.5,-6 278.5,-12 278.5,-12 278.5,-15 275.5,-18 272.5,-18"/>
<text text-anchor="middle" x="222.5" y="-6.8" font-family="Helvetica,sans-Serif" font-size="9.00">constantsSiteDetails.js</text>
</a>
</g>
</g>
<!-- fs -->
<g id="node3" class="node">
<title>fs</title>
<path fill="#ffffcc" stroke="grey" d="M243.5,-48C243.5,-48 201.5,-48 201.5,-48 198.5,-48 195.5,-45 195.5,-42 195.5,-42 195.5,-36 195.5,-36 195.5,-33 198.5,-30 201.5,-30 201.5,-30 243.5,-30 243.5,-30 246.5,-30 249.5,-33 249.5,-36 249.5,-36 249.5,-42 249.5,-42 249.5,-45 246.5,-48 243.5,-48"/>
<text text-anchor="middle" x="222.5" y="-36.8" font-family="Helvetica,sans-Serif" font-size="9.00" fill="grey">fs</text>
</g>
<!-- querystring -->
<g id="node4" class="node">
<title>querystring</title>
<path fill="#ffffcc" stroke="grey" d="M247.5,-108C247.5,-108 197.5,-108 197.5,-108 194.5,-108 191.5,-105 191.5,-102 191.5,-102 191.5,-96 191.5,-96 191.5,-93 194.5,-90 197.5,-90 197.5,-90 247.5,-90 247.5,-90 250.5,-90 253.5,-93 253.5,-96 253.5,-96 253.5,-102 253.5,-102 253.5,-105 250.5,-108 247.5,-108"/>
<text text-anchor="middle" x="222.5" y="-96.8" font-family="Helvetica,sans-Serif" font-size="9.00" fill="grey">querystring</text>
</g>
<!-- src/CLI/custom&#45;desktop&#45;config.js -->
<g id="node5" class="node">
<title>src/CLI/custom&#45;desktop&#45;config.js</title>
<g id="a_node5"><a xlink:href="src/CLI/custom-desktop-config.js" xlink:title="custom&#45;desktop&#45;config.js">
<path fill="#ffffcc" stroke="black" d="M277,-296C277,-296 168,-296 168,-296 165,-296 162,-293 162,-290 162,-290 162,-284 162,-284 162,-281 165,-278 168,-278 168,-278 277,-278 277,-278 280,-278 283,-281 283,-284 283,-284 283,-290 283,-290 283,-293 280,-296 277,-296"/>
<text text-anchor="middle" x="222.5" y="-284.8" font-family="Helvetica,sans-Serif" font-size="9.00">custom&#45;desktop&#45;config.js</text>
</a>
</g>
</g>
<!-- src/CLI/custom&#45;mobile&#45;config.js -->
<g id="node6" class="node">
<title>src/CLI/custom&#45;mobile&#45;config.js</title>
<g id="a_node6"><a xlink:href="src/CLI/custom-mobile-config.js" xlink:title="custom&#45;mobile&#45;config.js">
<path fill="#ffffcc" stroke="black" d="M274.5,-326C274.5,-326 170.5,-326 170.5,-326 167.5,-326 164.5,-323 164.5,-320 164.5,-320 164.5,-314 164.5,-314 164.5,-311 167.5,-308 170.5,-308 170.5,-308 274.5,-308 274.5,-308 277.5,-308 280.5,-311 280.5,-314 280.5,-314 280.5,-320 280.5,-320 280.5,-323 277.5,-326 274.5,-326"/>
<text text-anchor="middle" x="222.5" y="-314.8" font-family="Helvetica,sans-Serif" font-size="9.00">custom&#45;mobile&#45;config.js</text>
</a>
</g>
</g>
<!-- src/CLI/custom&#45;tablet&#45;config.js -->
<g id="node7" class="node">
<title>src/CLI/custom&#45;tablet&#45;config.js</title>
<g id="a_node7"><a xlink:href="src/CLI/custom-tablet-config.js" xlink:title="custom&#45;tablet&#45;config.js">
<path fill="#ffffcc" stroke="black" d="M271.5,-356C271.5,-356 173.5,-356 173.5,-356 170.5,-356 167.5,-353 167.5,-350 167.5,-350 167.5,-344 167.5,-344 167.5,-341 170.5,-338 173.5,-338 173.5,-338 271.5,-338 271.5,-338 274.5,-338 277.5,-341 277.5,-344 277.5,-344 277.5,-350 277.5,-350 277.5,-353 274.5,-356 271.5,-356"/>
<text text-anchor="middle" x="222.5" y="-344.8" font-family="Helvetica,sans-Serif" font-size="9.00">custom&#45;tablet&#45;config.js</text>
</a>
</g>
</g>
<!-- src/CLI/lighthouseCLI.js -->
<g id="node8" class="node">
<title>src/CLI/lighthouseCLI.js</title>
<g id="a_node8"><a xlink:href="src/CLI/lighthouseCLI.js" xlink:title="lighthouseCLI.js">
<path fill="#ffffcc" stroke="black" d="M118.5,-296C118.5,-296 46.5,-296 46.5,-296 43.5,-296 40.5,-293 40.5,-290 40.5,-290 40.5,-284 40.5,-284 40.5,-281 43.5,-278 46.5,-278 46.5,-278 118.5,-278 118.5,-278 121.5,-278 124.5,-281 124.5,-284 124.5,-284 124.5,-290 124.5,-290 124.5,-293 121.5,-296 118.5,-296"/>
<text text-anchor="middle" x="82.5" y="-284.8" font-family="Helvetica,sans-Serif" font-size="9.00">lighthouseCLI.js</text>
</a>
</g>
</g>
<!-- src/CLI/lighthouseCLI.js&#45;&gt;fs -->
<g id="edge4" class="edge">
<title>src/CLI/lighthouseCLI.js&#45;&gt;fs</title>
<path fill="none" stroke="#000000" stroke-dasharray="5,2" stroke-opacity="0.200000" d="M124.83,-287C134.01,-284.98 142.83,-281.08 149,-274 181.18,-237.08 130.77,-91.73 162,-54 168.7,-45.91 179.07,-41.82 189.29,-39.86"/>
<polygon fill="#000000" fill-opacity="0.200000" stroke="#000000" stroke-opacity="0.200000" points="189.65,-41.93 195.26,-38.94 189.01,-37.78 189.65,-41.93"/>
</g>
<!-- src/CLI/lighthouseCLI.js&#45;&gt;querystring -->
<g id="edge5" class="edge">
<title>src/CLI/lighthouseCLI.js&#45;&gt;querystring</title>
<path fill="none" stroke="#000000" stroke-dasharray="5,2" stroke-opacity="0.200000" d="M124.72,-286.91C133.9,-284.89 142.75,-281.01 149,-274 172.74,-247.37 138.95,-141.23 162,-114 167.87,-107.06 176.44,-103.08 185.25,-100.86"/>
<polygon fill="#000000" fill-opacity="0.200000" stroke="#000000" stroke-opacity="0.200000" points="185.92,-102.87 191.36,-99.59 185.06,-98.76 185.92,-102.87"/>
</g>
<!-- src/CLI/lighthouseCLI.js&#45;&gt;src/CLI/custom&#45;desktop&#45;config.js -->
<g id="edge1" class="edge">
<title>src/CLI/lighthouseCLI.js&#45;&gt;src/CLI/custom&#45;desktop&#45;config.js</title>
<path fill="none" stroke="#000000" stroke-width="2" stroke-opacity="0.200000" d="M124.53,-287C134.36,-287 145.1,-287 155.74,-287"/>
<polygon fill="#000000" fill-opacity="0.200000" stroke="#000000" stroke-width="2" stroke-opacity="0.200000" points="155.98,-289.1 161.98,-287 155.98,-284.9 155.98,-289.1"/>
</g>
<!-- src/CLI/lighthouseCLI.js&#45;&gt;src/CLI/custom&#45;mobile&#45;config.js -->
<g id="edge2" class="edge">
<title>src/CLI/lighthouseCLI.js&#45;&gt;src/CLI/custom&#45;mobile&#45;config.js</title>
<path fill="none" stroke="#000000" stroke-width="2" stroke-opacity="0.200000" d="M124.53,-295.92C139.96,-299.27 157.64,-303.12 173.64,-306.6"/>
<polygon fill="#000000" fill-opacity="0.200000" stroke="#000000" stroke-width="2" stroke-opacity="0.200000" points="173.6,-308.74 179.91,-307.96 174.49,-304.63 173.6,-308.74"/>
</g>
<!-- src/CLI/lighthouseCLI.js&#45;&gt;src/CLI/custom&#45;tablet&#45;config.js -->
<g id="edge3" class="edge">
<title>src/CLI/lighthouseCLI.js&#45;&gt;src/CLI/custom&#45;tablet&#45;config.js</title>
<path fill="none" stroke="#000000" stroke-width="2" stroke-opacity="0.200000" d="M96.82,-296.15C111.99,-306.21 137.82,-322.24 162,-332 165.72,-333.5 169.63,-334.88 173.59,-336.15"/>
<polygon fill="#000000" fill-opacity="0.200000" stroke="#000000" stroke-width="2" stroke-opacity="0.200000" points="173.07,-338.19 179.42,-337.93 174.3,-334.17 173.07,-338.19"/>
</g>
<!-- util -->
<g id="node9" class="node">
<title>util</title>
<path fill="#ffffcc" stroke="grey" d="M243.5,-138C243.5,-138 201.5,-138 201.5,-138 198.5,-138 195.5,-135 195.5,-132 195.5,-132 195.5,-126 195.5,-126 195.5,-123 198.5,-120 201.5,-120 201.5,-120 243.5,-120 243.5,-120 246.5,-120 249.5,-123 249.5,-126 249.5,-126 249.5,-132 249.5,-132 249.5,-135 246.5,-138 243.5,-138"/>
<text text-anchor="middle" x="222.5" y="-126.8" font-family="Helvetica,sans-Serif" font-size="9.00" fill="grey">util</text>
</g>
<!-- src/CLI/lighthouseCLI.js&#45;&gt;util -->
<g id="edge6" class="edge">
<title>src/CLI/lighthouseCLI.js&#45;&gt;util</title>
<path fill="none" stroke="#000000" stroke-dasharray="5,2" stroke-opacity="0.200000" d="M124.63,-286.83C133.82,-284.81 142.69,-280.95 149,-274 168.66,-252.34 142.73,-165.01 162,-143 168.9,-135.13 179.31,-131.24 189.51,-129.44"/>
<polygon fill="#000000" fill-opacity="0.200000" stroke="#000000" stroke-opacity="0.200000" points="189.81,-131.52 195.46,-128.61 189.23,-127.36 189.81,-131.52"/>
</g>
<!-- src/constants.js -->
<g id="node10" class="node">
<title>src/constants.js</title>
<g id="a_node10"><a xlink:href="src/constants.js" xlink:title="constants.js">
<path fill="#ffffcc" stroke="black" d="M250,-247C250,-247 195,-247 195,-247 192,-247 189,-244 189,-241 189,-241 189,-235 189,-235 189,-232 192,-229 195,-229 195,-229 250,-229 250,-229 253,-229 256,-232 256,-235 256,-235 256,-241 256,-241 256,-244 253,-247 250,-247"/>
<text text-anchor="middle" x="222.5" y="-235.8" font-family="Helvetica,sans-Serif" font-size="9.00">constants.js</text>
</a>
</g>
</g>
<!-- src/getcookies.js -->
<g id="node11" class="node">
<title>src/getcookies.js</title>
<g id="a_node11"><a xlink:href="src/getcookies.js" xlink:title="getcookies.js">
<path fill="#ffffcc" stroke="black" d="M112,-202C112,-202 53,-202 53,-202 50,-202 47,-199 47,-196 47,-196 47,-190 47,-190 47,-187 50,-184 53,-184 53,-184 112,-184 112,-184 115,-184 118,-187 118,-190 118,-190 118,-196 118,-196 118,-199 115,-202 112,-202"/>
<text text-anchor="middle" x="82.5" y="-190.8" font-family="Helvetica,sans-Serif" font-size="9.00">getcookies.js</text>
</a>
</g>
</g>
<!-- src/getcookies.js&#45;&gt;./constantsSiteDetails -->
<g id="edge7" class="edge">
<title>src/getcookies.js&#45;&gt;./constantsSiteDetails</title>
<path fill="none" stroke="#000000" stroke-width="2" stroke-opacity="0.200000" d="M118.05,-192.66C129.4,-190.77 141.12,-186.6 149,-178 177.49,-146.9 133.85,-115.41 162,-84 163.35,-82.49 164.83,-81.13 166.41,-79.89"/>
<polygon fill="#000000" fill-opacity="0.200000" stroke="#000000" stroke-width="2" stroke-opacity="0.200000" points="167.59,-81.62 171.42,-76.55 165.26,-78.13 167.59,-81.62"/>
</g>
<!-- src/getcookies.js&#45;&gt;fs -->
<g id="edge8" class="edge">
<title>src/getcookies.js&#45;&gt;fs</title>
<path fill="none" stroke="#000000" stroke-dasharray="5,2" stroke-opacity="0.200000" d="M118.21,-192.81C129.58,-190.93 141.26,-186.73 149,-178 185.75,-136.53 125.71,-95.87 162,-54 168.88,-46.06 179.3,-42.01 189.5,-40.03"/>
<polygon fill="#000000" fill-opacity="0.200000" stroke="#000000" stroke-opacity="0.200000" points="189.85,-42.1 195.45,-39.1 189.19,-37.96 189.85,-42.1"/>
</g>
<!-- src/lighthouseConfig&#45;desktop.js -->
<g id="node12" class="node">
<title>src/lighthouseConfig&#45;desktop.js</title>
<g id="a_node12"><a xlink:href="src/lighthouseConfig-desktop.js" xlink:title="lighthouseConfig&#45;desktop.js">
<path fill="#ffffcc" stroke="black" d="M143,-262C143,-262 22,-262 22,-262 19,-262 16,-259 16,-256 16,-256 16,-250 16,-250 16,-247 19,-244 22,-244 22,-244 143,-244 143,-244 146,-244 149,-247 149,-250 149,-250 149,-256 149,-256 149,-259 146,-262 143,-262"/>
<text text-anchor="middle" x="82.5" y="-250.8" font-family="Helvetica,sans-Serif" font-size="9.00">lighthouseConfig&#45;desktop.js</text>
</a>
</g>
</g>
<!-- src/lighthouseConfig&#45;desktop.js&#45;&gt;./constantsSiteDetails -->
<g id="edge10" class="edge">
<title>src/lighthouseConfig&#45;desktop.js&#45;&gt;./constantsSiteDetails</title>
<path fill="none" stroke="#000000" stroke-width="2" stroke-opacity="0.200000" d="M142.3,-243.98C144.75,-242.27 147.01,-240.29 149,-238 171.52,-212.07 139.77,-110.18 162,-84 163.23,-82.55 164.57,-81.24 166.01,-80.04"/>
<polygon fill="#000000" fill-opacity="0.200000" stroke="#000000" stroke-width="2" stroke-opacity="0.200000" points="167.52,-81.55 171.24,-76.39 165.12,-78.1 167.52,-81.55"/>
</g>
<!-- src/lighthouseConfig&#45;desktop.js&#45;&gt;src/constants.js -->
<g id="edge9" class="edge">
<title>src/lighthouseConfig&#45;desktop.js&#45;&gt;src/constants.js</title>
<path fill="none" stroke="#000000" stroke-width="2" stroke-opacity="0.200000" d="M149.27,-245.85C160.76,-244.6 172.37,-243.34 182.82,-242.2"/>
<polygon fill="#000000" fill-opacity="0.200000" stroke="#000000" stroke-width="2" stroke-opacity="0.200000" points="183.09,-244.29 188.83,-241.55 182.64,-240.11 183.09,-244.29"/>
</g>
<!-- src/lighthouseConfig&#45;mobile.js -->
<g id="node13" class="node">
<title>src/lighthouseConfig&#45;mobile.js</title>
<g id="a_node13"><a xlink:href="src/lighthouseConfig-mobile.js" xlink:title="lighthouseConfig&#45;mobile.js">
<path fill="#ffffcc" stroke="black" d="M140.5,-232C140.5,-232 24.5,-232 24.5,-232 21.5,-232 18.5,-229 18.5,-226 18.5,-226 18.5,-220 18.5,-220 18.5,-217 21.5,-214 24.5,-214 24.5,-214 140.5,-214 140.5,-214 143.5,-214 146.5,-217 146.5,-220 146.5,-220 146.5,-226 146.5,-226 146.5,-229 143.5,-232 140.5,-232"/>
<text text-anchor="middle" x="82.5" y="-220.8" font-family="Helvetica,sans-Serif" font-size="9.00">lighthouseConfig&#45;mobile.js</text>
</a>
</g>
</g>
<!-- src/lighthouseConfig&#45;mobile.js&#45;&gt;./constantsSiteDetails -->
<g id="edge12" class="edge">
<title>src/lighthouseConfig&#45;mobile.js&#45;&gt;./constantsSiteDetails</title>
<path fill="none" stroke="#000000" stroke-width="2" stroke-opacity="0.200000" d="M142.24,-213.93C144.71,-212.23 146.99,-210.27 149,-208 185.75,-166.53 125.71,-125.87 162,-84 163.33,-82.47 164.78,-81.09 166.34,-79.83"/>
<polygon fill="#000000" fill-opacity="0.200000" stroke="#000000" stroke-width="2" stroke-opacity="0.200000" points="167.53,-81.56 171.31,-76.45 165.17,-78.09 167.53,-81.56"/>
</g>
<!-- src/lighthouseConfig&#45;mobile.js&#45;&gt;src/constants.js -->
<g id="edge11" class="edge">
<title>src/lighthouseConfig&#45;mobile.js&#45;&gt;src/constants.js</title>
<path fill="none" stroke="#000000" stroke-width="2" stroke-opacity="0.200000" d="M146.85,-229.89C159.04,-231.21 171.47,-232.56 182.61,-233.77"/>
<polygon fill="#000000" fill-opacity="0.200000" stroke="#000000" stroke-width="2" stroke-opacity="0.200000" points="182.46,-235.87 188.65,-234.43 182.91,-231.69 182.46,-235.87"/>
</g>
<!-- src/preRunPuppeteer.js -->
<g id="node14" class="node">
<title>src/preRunPuppeteer.js</title>
<g id="a_node14"><a xlink:href="src/preRunPuppeteer.js" xlink:title="preRunPuppeteer.js">
<path fill="#ffffcc" stroke="black" d="M126.5,-172C126.5,-172 38.5,-172 38.5,-172 35.5,-172 32.5,-169 32.5,-166 32.5,-166 32.5,-160 32.5,-160 32.5,-157 35.5,-154 38.5,-154 38.5,-154 126.5,-154 126.5,-154 129.5,-154 132.5,-157 132.5,-160 132.5,-160 132.5,-166 132.5,-166 132.5,-169 129.5,-172 126.5,-172"/>
<text text-anchor="middle" x="82.5" y="-160.8" font-family="Helvetica,sans-Serif" font-size="9.00">preRunPuppeteer.js</text>
</a>
</g>
</g>
<!-- src/preRunPuppeteer.js&#45;&gt;constantsSiteDetails.js -->
<g id="edge13" class="edge">
<title>src/preRunPuppeteer.js&#45;&gt;constantsSiteDetails.js</title>
<path fill="none" stroke="#000000" stroke-width="2" stroke-opacity="0.200000" d="M85.91,-153.86C92.99,-128.88 116.17,-58.97 162,-24 163.43,-22.91 164.93,-21.9 166.48,-20.96"/>
<polygon fill="#000000" fill-opacity="0.200000" stroke="#000000" stroke-width="2" stroke-opacity="0.200000" points="167.65,-22.72 171.95,-18.04 165.67,-19.01 167.65,-22.72"/>
</g>
<!-- src/preRunPuppeteer.js&#45;&gt;fs -->
<g id="edge14" class="edge">
<title>src/preRunPuppeteer.js&#45;&gt;fs</title>
<path fill="none" stroke="#000000" stroke-dasharray="5,2" stroke-opacity="0.200000" d="M87.44,-153.72C96.95,-132.51 123.23,-80.34 162,-54 170.02,-48.55 179.87,-45.08 189.22,-42.87"/>
<polygon fill="#000000" fill-opacity="0.200000" stroke="#000000" stroke-opacity="0.200000" points="189.84,-44.88 195.27,-41.59 188.97,-40.77 189.84,-44.88"/>
</g>
</g>
</svg>
